<?xml version="1.0" encoding="UTF-8" standalone="no"?>
<svg width="68px" height="48px" viewBox="0 0 68 48" version="1.1" xmlns="http://www.w3.org/2000/svg" xmlns:xlink="http://www.w3.org/1999/xlink" xmlns:sketch="http://www.bohemiancoding.com/sketch/ns">
    <!-- Generator: Sketch 3.5.1 (25234) - http://www.bohemiancoding.com/sketch -->
    <title>Contact Icon</title>
    <desc>Created with Sketch.</desc>
    <defs></defs>
    <g id="Help-Center" stroke="none" stroke-width="1" fill="none" fill-rule="evenodd" sketch:type="MSPage">
        <g id="Help-Center-Landing" sketch:type="MSArtboardGroup" transform="translate(-549.000000, -837.000000)" fill="#417505">
            <g id="Group-7" sketch:type="MSLayerGroup" transform="translate(525.000000, 837.000000)">
                <g id="Contact-Icon" transform="translate(24.000000, 0.000000)" sketch:type="MSShapeGroup">
                    <path d="M1.14202201,26.5226699 C-1.97950481,18.5579041 2.36017882,12.1064439 4.03514443,10.2745478 C4.56808803,9.71701419 11.9531637,1.1150672 33.956121,0.477885944 C51.6955296,-1.70419234e-14 62.0498624,8.52229933 63.8770977,10.2745478 C65.7043329,11.9471486 69.5110729,16.964951 66.7702201,26.5226699 C66.4656809,27.7173847 65.1713893,29.3899855 64.4100413,29.3899855 C64.1055021,29.3899855 50.9341816,26.0447839 50.5535076,25.8854886 C50.1728336,25.7261933 49.7921596,25.566898 49.5637552,25.2483074 C49.1830812,24.8500691 48.9546768,24.0535925 48.9546768,22.9385253 C48.9546768,21.8234581 48.9546768,20.6287432 49.1830812,19.513676 C49.3353508,18.3986088 49.4114856,17.2835416 49.4114856,16.1684744 C49.4114856,15.0534072 49.259216,14.3365783 48.9546768,14.0179877 C48.0410591,13.1418635 44.2343191,10.5931384 33.956121,11.3099673 C23.7540578,12.0267963 19.7950481,13.3011588 19.4143741,13.4604541 C19.0337001,13.6197494 18.8052957,13.7790447 18.6530261,13.93834 C18.3484869,14.2569307 18.1200825,15.0534072 18.1962173,16.0888268 C18.1962173,17.203894 18.8814305,21.5845151 18.8052957,22.6995823 C18.8052957,23.8146495 18.5768913,24.6111261 18.1962173,25.0093644 C17.9678129,25.2483074 17.5871389,25.4872503 17.2064649,25.6465456 C16.7496561,25.8854886 3.80674003,29.3899855 3.50220083,29.3899855 C2.58858322,29.3899855 1.52269601,27.6377371 1.14202201,26.5226699" id="Shape"></path>
                    <path d="M6.54759285,39.4255904 C5.55784044,39.4255904 4.64422283,38.7884091 4.26354883,37.7529896 C3.73060523,36.3989794 4.41581843,34.8856739 5.71011004,34.407788 C7.84188446,33.5316637 27.0278542,25.805841 34.1845254,25.805841 C41.2650619,25.805841 60.0703576,33.5316637 62.202132,34.4874356 C63.4964237,35.0449692 64.1055021,36.5582747 63.5725585,37.8326372 C63.0396149,39.1866474 61.5930536,39.8238286 60.3748968,39.266295 C54.8170564,36.8768653 39.2855571,30.903291 34.1083906,30.903291 C28.8550894,30.903291 13.0190509,36.8768653 7.38507565,39.1866474 C7.15667125,39.3459427 6.85213205,39.4255904 6.54759285,39.4255904 L6.54759285,39.4255904 Z" id="Shape"></path>
                    <path d="M6.54759285,47.7885944 C5.55784044,47.7885944 4.64422283,47.1514131 4.26354883,46.1159936 C3.73060523,44.7619834 4.41581843,43.2486779 5.71011004,42.770792 C7.84188446,41.8946677 27.0278542,34.168845 34.1845254,34.168845 C41.2650619,34.168845 60.0703576,41.8946677 62.202132,42.8504396 C63.4964237,43.4079732 64.1055021,44.9212787 63.5725585,46.1956412 C63.0396149,47.5496514 61.5930536,48.1868327 60.3748968,47.6292991 C54.8170564,45.319517 39.2855571,39.3459427 34.1083906,39.3459427 C28.8550894,39.3459427 13.0190509,45.319517 7.38507565,47.6292991 C7.15667125,47.7089467 6.85213205,47.7885944 6.54759285,47.7885944 L6.54759285,47.7885944 Z" id="Shape"></path>
                </g>
            </g>
        </g>
    </g>
</svg>