<?xml version="1.0" encoding="utf-8"?>
<!-- Generator: Adobe Illustrator 19.0.0, SVG Export Plug-In . SVG Version: 6.00 Build 0)  -->
<svg version="1.1" id="Layer_1" xmlns="http://www.w3.org/2000/svg" xmlns:xlink="http://www.w3.org/1999/xlink" x="0px" y="0px"
	 viewBox="-210 386.3 174 69.6" enable-background="new -210 386.3 174 69.6" xml:space="preserve">
<g>
	<g>
		<g>
			<g>
				<defs>
					<circle id="SVGID_1_" cx="-186.3" cy="433.7" r="13.6"/>
				</defs>
				<clipPath id="SVGID_2_">
					<use xlink:href="#SVGID_1_"  overflow="visible"/>
				</clipPath>
				<polygon clip-path="url(#SVGID_2_)" fill="#FAE8B0" points="-186.6,447.3 -172.7,441.6 -172.7,447.3 				"/>
				<polygon clip-path="url(#SVGID_2_)" fill="#FAE8B0" points="-186.8,447.3 -172.7,441.5 -172.7,441.6 -186.6,447.3 				"/>
				<polygon clip-path="url(#SVGID_2_)" fill="#FAE8B0" points="-187,447.3 -172.7,441.4 -172.7,441.5 -186.8,447.3 				"/>
				<polygon clip-path="url(#SVGID_2_)" fill="#FAE8AF" points="-187.3,447.3 -172.7,441.3 -172.7,441.4 -187,447.3 				"/>
				<polygon clip-path="url(#SVGID_2_)" fill="#FAE8AE" points="-187.5,447.3 -172.7,441.2 -172.7,441.3 -187.3,447.3 				"/>
				<polygon clip-path="url(#SVGID_2_)" fill="#FAE7AD" points="-187.8,447.3 -172.7,441.1 -172.7,441.2 -187.5,447.3 				"/>
				<polygon clip-path="url(#SVGID_2_)" fill="#FAE7AC" points="-188,447.3 -172.7,441 -172.7,441.1 -187.8,447.3 				"/>
				<polygon clip-path="url(#SVGID_2_)" fill="#F9E7AB" points="-188.3,447.3 -172.7,440.9 -172.7,441 -188,447.3 				"/>
				<polygon clip-path="url(#SVGID_2_)" fill="#F9E7AB" points="-188.5,447.3 -172.7,440.8 -172.7,440.9 -188.3,447.3 				"/>
				<polygon clip-path="url(#SVGID_2_)" fill="#F9E7AA" points="-188.7,447.3 -172.7,440.7 -172.7,440.8 -188.5,447.3 				"/>
				<polygon clip-path="url(#SVGID_2_)" fill="#F9E6A9" points="-189,447.3 -172.7,440.6 -172.7,440.7 -188.7,447.3 				"/>
				<polygon clip-path="url(#SVGID_2_)" fill="#F9E6A8" points="-189.2,447.3 -172.7,440.5 -172.7,440.6 -189,447.3 				"/>
				<polygon clip-path="url(#SVGID_2_)" fill="#F9E6A7" points="-189.5,447.3 -172.7,440.4 -172.7,440.5 -189.2,447.3 				"/>
				<polygon clip-path="url(#SVGID_2_)" fill="#F9E6A6" points="-189.7,447.3 -172.7,440.3 -172.7,440.4 -189.5,447.3 				"/>
				<polygon clip-path="url(#SVGID_2_)" fill="#F9E6A6" points="-189.9,447.3 -172.7,440.2 -172.7,440.3 -189.7,447.3 				"/>
				<polygon clip-path="url(#SVGID_2_)" fill="#F9E5A5" points="-190.2,447.3 -172.7,440.1 -172.7,440.2 -189.9,447.3 				"/>
				<polygon clip-path="url(#SVGID_2_)" fill="#F9E5A4" points="-190.4,447.3 -172.7,440 -172.7,440.1 -190.2,447.3 				"/>
				<polygon clip-path="url(#SVGID_2_)" fill="#F9E5A3" points="-190.7,447.3 -172.7,439.9 -172.7,440 -190.4,447.3 				"/>
				<polygon clip-path="url(#SVGID_2_)" fill="#F9E5A2" points="-190.9,447.3 -172.7,439.7 -172.7,439.9 -190.7,447.3 				"/>
				<polygon clip-path="url(#SVGID_2_)" fill="#F9E5A1" points="-191.2,447.3 -172.7,439.6 -172.7,439.7 -190.9,447.3 				"/>
				<polygon clip-path="url(#SVGID_2_)" fill="#F9E4A1" points="-191.4,447.3 -172.7,439.5 -172.7,439.6 -191.2,447.3 				"/>
				<polygon clip-path="url(#SVGID_2_)" fill="#F9E4A0" points="-191.6,447.3 -172.7,439.4 -172.7,439.5 -191.4,447.3 				"/>
				<polygon clip-path="url(#SVGID_2_)" fill="#F9E49F" points="-191.9,447.3 -172.7,439.3 -172.7,439.4 -191.6,447.3 				"/>
				<polygon clip-path="url(#SVGID_2_)" fill="#F9E49E" points="-192.1,447.3 -172.7,439.2 -172.7,439.3 -191.9,447.3 				"/>
				<polygon clip-path="url(#SVGID_2_)" fill="#F9E49D" points="-192.4,447.3 -172.7,439.1 -172.7,439.2 -192.1,447.3 				"/>
				<polygon clip-path="url(#SVGID_2_)" fill="#F9E39D" points="-192.6,447.3 -172.7,439 -172.7,439.1 -192.4,447.3 				"/>
				<polygon clip-path="url(#SVGID_2_)" fill="#F9E39C" points="-192.8,447.3 -172.7,438.9 -172.7,439 -192.6,447.3 				"/>
				<polygon clip-path="url(#SVGID_2_)" fill="#F9E39B" points="-193.1,447.3 -172.7,438.8 -172.7,438.9 -192.8,447.3 				"/>
				<polygon clip-path="url(#SVGID_2_)" fill="#F9E39A" points="-193.3,447.3 -172.7,438.7 -172.7,438.8 -193.1,447.3 				"/>
				<polygon clip-path="url(#SVGID_2_)" fill="#F8E399" points="-193.6,447.3 -172.7,438.6 -172.7,438.7 -193.3,447.3 				"/>
				<polygon clip-path="url(#SVGID_2_)" fill="#F8E299" points="-193.8,447.3 -172.7,438.5 -172.7,438.6 -193.6,447.3 				"/>
				<polygon clip-path="url(#SVGID_2_)" fill="#F8E298" points="-194,447.3 -172.7,438.4 -172.7,438.5 -193.8,447.3 				"/>
				<polygon clip-path="url(#SVGID_2_)" fill="#F8E297" points="-194.3,447.3 -172.7,438.3 -172.7,438.4 -194,447.3 				"/>
				<polygon clip-path="url(#SVGID_2_)" fill="#F8E296" points="-194.5,447.3 -172.7,438.2 -172.7,438.3 -194.3,447.3 				"/>
				<polygon clip-path="url(#SVGID_2_)" fill="#F8E295" points="-194.8,447.3 -172.7,438.1 -172.7,438.2 -194.5,447.3 				"/>
				<polygon clip-path="url(#SVGID_2_)" fill="#F8E195" points="-195,447.3 -172.7,438 -172.7,438.1 -194.8,447.3 				"/>
				<polygon clip-path="url(#SVGID_2_)" fill="#F8E194" points="-195.3,447.3 -172.7,437.9 -172.7,438 -195,447.3 				"/>
				<polygon clip-path="url(#SVGID_2_)" fill="#F8E193" points="-195.5,447.3 -172.7,437.8 -172.7,437.9 -195.3,447.3 				"/>
				<polygon clip-path="url(#SVGID_2_)" fill="#F8E192" points="-195.7,447.3 -172.7,437.7 -172.7,437.8 -195.5,447.3 				"/>
				<polygon clip-path="url(#SVGID_2_)" fill="#F8E191" points="-196,447.3 -172.7,437.6 -172.7,437.7 -195.7,447.3 				"/>
				<polygon clip-path="url(#SVGID_2_)" fill="#F8E191" points="-196.2,447.3 -172.7,437.5 -172.7,437.6 -196,447.3 				"/>
				<polygon clip-path="url(#SVGID_2_)" fill="#F8E090" points="-196.5,447.3 -172.7,437.4 -172.7,437.5 -196.2,447.3 				"/>
				<polygon clip-path="url(#SVGID_2_)" fill="#F8E08F" points="-196.7,447.3 -172.7,437.3 -172.7,437.4 -196.5,447.3 				"/>
				<polygon clip-path="url(#SVGID_2_)" fill="#F8E08E" points="-196.9,447.3 -172.7,437.2 -172.7,437.3 -196.7,447.3 				"/>
				<polygon clip-path="url(#SVGID_2_)" fill="#F8E08D" points="-197.2,447.3 -172.7,437.1 -172.7,437.2 -196.9,447.3 				"/>
				<polygon clip-path="url(#SVGID_2_)" fill="#F8E08D" points="-197.4,447.3 -172.7,437 -172.7,437.1 -197.2,447.3 				"/>
				<polygon clip-path="url(#SVGID_2_)" fill="#F8DF8C" points="-197.7,447.3 -172.7,436.9 -172.7,437 -197.4,447.3 				"/>
				<polygon clip-path="url(#SVGID_2_)" fill="#F8DF8B" points="-197.9,447.3 -172.7,436.8 -172.7,436.9 -197.7,447.3 				"/>
				<polygon clip-path="url(#SVGID_2_)" fill="#F8DF8A" points="-198.1,447.3 -172.7,436.7 -172.7,436.8 -197.9,447.3 				"/>
				<polygon clip-path="url(#SVGID_2_)" fill="#F7DF89" points="-198.4,447.3 -172.7,436.6 -172.7,436.7 -198.1,447.3 				"/>
				<polygon clip-path="url(#SVGID_2_)" fill="#F7DF89" points="-198.6,447.3 -172.7,436.5 -172.7,436.6 -198.4,447.3 				"/>
				<polygon clip-path="url(#SVGID_2_)" fill="#F7DF88" points="-198.9,447.3 -172.7,436.4 -172.7,436.5 -198.6,447.3 				"/>
				<polygon clip-path="url(#SVGID_2_)" fill="#F7DE87" points="-199.1,447.3 -172.7,436.3 -172.7,436.4 -198.9,447.3 				"/>
				<polygon clip-path="url(#SVGID_2_)" fill="#F7DE86" points="-199.4,447.3 -172.7,436.2 -172.7,436.3 -199.1,447.3 				"/>
				<polygon clip-path="url(#SVGID_2_)" fill="#F7DE86" points="-199.5,447.3 -199.5,447.3 -172.7,436.1 -172.7,436.2 -199.4,447.3 
									"/>
				<polygon clip-path="url(#SVGID_2_)" fill="#F7DE85" points="-199.5,447.3 -199.6,447.2 -172.7,436 -172.7,436.1 				"/>
				<polygon clip-path="url(#SVGID_2_)" fill="#F7DE84" points="-199.6,447.2 -199.6,447.1 -172.7,435.9 -172.7,436 				"/>
				<polygon clip-path="url(#SVGID_2_)" fill="#F7DD83" points="-199.6,447.1 -199.6,447.1 -172.7,435.8 -172.7,435.9 				"/>
				<polygon clip-path="url(#SVGID_2_)" fill="#F7DD82" points="-199.6,447.1 -199.7,447 -172.7,435.7 -172.7,435.8 				"/>
				<polygon clip-path="url(#SVGID_2_)" fill="#F7DD82" points="-199.7,447 -199.7,446.9 -172.7,435.6 -172.7,435.7 				"/>
				<polygon clip-path="url(#SVGID_2_)" fill="#F7DD81" points="-199.7,446.9 -199.7,446.8 -172.7,435.5 -172.7,435.6 				"/>
				<polygon clip-path="url(#SVGID_2_)" fill="#F7DD80" points="-199.7,446.8 -199.8,446.7 -172.7,435.4 -172.7,435.5 				"/>
				<polygon clip-path="url(#SVGID_2_)" fill="#F7DD7F" points="-199.8,446.7 -199.8,446.6 -172.7,435.3 -172.7,435.4 				"/>
				<polygon clip-path="url(#SVGID_2_)" fill="#F7DC7E" points="-199.8,446.6 -199.9,446.5 -172.7,435.2 -172.7,435.3 				"/>
				<polygon clip-path="url(#SVGID_2_)" fill="#F7DC7E" points="-199.9,446.5 -199.9,446.5 -172.7,435.1 -172.7,435.2 				"/>
				<polygon clip-path="url(#SVGID_2_)" fill="#F7DC7D" points="-199.9,446.5 -199.9,446.4 -199.9,446.4 -172.7,435 -172.7,435.1 
									"/>
				<polygon clip-path="url(#SVGID_2_)" fill="#F7DC7C" points="-199.9,446.3 -172.7,434.9 -172.7,435 -199.9,446.4 				"/>
				<polygon clip-path="url(#SVGID_2_)" fill="#F7DC7B" points="-199.9,446.2 -172.7,434.8 -172.7,434.9 -199.9,446.3 				"/>
				<polygon clip-path="url(#SVGID_2_)" fill="#F7DB7A" points="-199.9,446.1 -172.7,434.7 -172.7,434.8 -199.9,446.2 				"/>
				<polygon clip-path="url(#SVGID_2_)" fill="#F6DB7A" points="-199.9,446 -172.7,434.6 -172.7,434.7 -199.9,446.1 				"/>
				<polygon clip-path="url(#SVGID_2_)" fill="#F6DB79" points="-199.9,445.9 -172.7,434.5 -172.7,434.6 -199.9,446 				"/>
				<polygon clip-path="url(#SVGID_2_)" fill="#F6DB78" points="-199.9,445.7 -172.7,434.4 -172.7,434.5 -199.9,445.9 				"/>
				<polygon clip-path="url(#SVGID_2_)" fill="#F6DB77" points="-199.9,445.6 -172.7,434.3 -172.7,434.4 -199.9,445.7 				"/>
				<polygon clip-path="url(#SVGID_2_)" fill="#F6DB76" points="-199.9,445.5 -172.7,434.2 -172.7,434.3 -199.9,445.6 				"/>
				<polygon clip-path="url(#SVGID_2_)" fill="#F6DA75" points="-199.9,445.4 -172.7,434.1 -172.7,434.2 -199.9,445.5 				"/>
				<polygon clip-path="url(#SVGID_2_)" fill="#F6DA75" points="-199.9,445.3 -172.7,434 -172.7,434.1 -199.9,445.4 				"/>
				<polygon clip-path="url(#SVGID_2_)" fill="#F6DA74" points="-199.9,445.2 -172.7,433.9 -172.7,434 -199.9,445.3 				"/>
				<polygon clip-path="url(#SVGID_2_)" fill="#F6DA73" points="-199.9,445.1 -172.7,433.8 -172.7,433.9 -199.9,445.2 				"/>
				<polygon clip-path="url(#SVGID_2_)" fill="#F6DA72" points="-199.9,445 -172.7,433.7 -172.7,433.8 -199.9,445.1 				"/>
				<polygon clip-path="url(#SVGID_2_)" fill="#F6DA71" points="-199.9,444.9 -172.7,433.6 -172.7,433.7 -199.9,445 				"/>
				<polygon clip-path="url(#SVGID_2_)" fill="#F6D970" points="-199.9,444.8 -172.7,433.5 -172.7,433.6 -199.9,444.9 				"/>
				<polygon clip-path="url(#SVGID_2_)" fill="#F6D96F" points="-199.9,444.7 -172.7,433.4 -172.7,433.5 -199.9,444.8 				"/>
				<polygon clip-path="url(#SVGID_2_)" fill="#F6D96F" points="-199.9,444.6 -172.7,433.3 -172.7,433.4 -199.9,444.7 				"/>
				<polygon clip-path="url(#SVGID_2_)" fill="#F6D96E" points="-199.9,444.5 -172.7,433.2 -172.7,433.3 -199.9,444.6 				"/>
				<polygon clip-path="url(#SVGID_2_)" fill="#F6D96D" points="-199.9,444.4 -172.7,433.1 -172.7,433.2 -199.9,444.5 				"/>
				<polygon clip-path="url(#SVGID_2_)" fill="#F6D96C" points="-199.9,444.3 -172.7,433 -172.7,433.1 -199.9,444.4 				"/>
				<polygon clip-path="url(#SVGID_2_)" fill="#F6D86B" points="-199.9,444.2 -172.7,432.9 -172.7,433 -199.9,444.3 				"/>
				<polygon clip-path="url(#SVGID_2_)" fill="#F6D86A" points="-199.9,444.1 -172.7,432.8 -172.7,432.9 -199.9,444.2 				"/>
				<polygon clip-path="url(#SVGID_2_)" fill="#F5D869" points="-199.9,444 -172.7,432.7 -172.7,432.8 -199.9,444.1 				"/>
				<polygon clip-path="url(#SVGID_2_)" fill="#F5D868" points="-199.9,443.9 -172.7,432.6 -172.7,432.7 -199.9,444 				"/>
				<polygon clip-path="url(#SVGID_2_)" fill="#F5D867" points="-199.9,443.8 -172.7,432.5 -172.7,432.6 -199.9,443.9 				"/>
				<polygon clip-path="url(#SVGID_2_)" fill="#F5D767" points="-199.9,443.7 -172.7,432.4 -172.7,432.5 -199.9,443.8 				"/>
				<polygon clip-path="url(#SVGID_2_)" fill="#F5D766" points="-199.9,443.6 -172.7,432.3 -172.7,432.4 -199.9,443.7 				"/>
				<polygon clip-path="url(#SVGID_2_)" fill="#F5D765" points="-199.9,443.5 -172.7,432.2 -172.7,432.3 -199.9,443.6 				"/>
				<polygon clip-path="url(#SVGID_2_)" fill="#F5D764" points="-199.9,443.4 -172.7,432.1 -172.7,432.2 -199.9,443.5 				"/>
				<polygon clip-path="url(#SVGID_2_)" fill="#F5D763" points="-199.9,443.3 -172.7,432 -172.7,432.1 -199.9,443.4 				"/>
				<polygon clip-path="url(#SVGID_2_)" fill="#F5D762" points="-199.9,443.2 -172.7,431.9 -172.7,432 -199.9,443.3 				"/>
				<polygon clip-path="url(#SVGID_2_)" fill="#F5D661" points="-199.9,443.1 -172.7,431.8 -172.7,431.9 -199.9,443.2 				"/>
				<polygon clip-path="url(#SVGID_2_)" fill="#F5D660" points="-199.9,443 -172.7,431.7 -172.7,431.8 -199.9,443.1 				"/>
				<polygon clip-path="url(#SVGID_2_)" fill="#F5D65F" points="-199.9,442.9 -172.7,431.6 -172.7,431.7 -199.9,443 				"/>
				<polygon clip-path="url(#SVGID_2_)" fill="#F5D65E" points="-199.9,442.8 -172.7,431.5 -172.7,431.6 -199.9,442.9 				"/>
				<polygon clip-path="url(#SVGID_2_)" fill="#F5D65D" points="-199.9,442.7 -172.7,431.4 -172.7,431.5 -199.9,442.8 				"/>
				<polygon clip-path="url(#SVGID_2_)" fill="#F5D65C" points="-199.9,442.6 -172.7,431.3 -172.7,431.4 -199.9,442.7 				"/>
				<polygon clip-path="url(#SVGID_2_)" fill="#F5D55B" points="-199.9,442.5 -172.7,431.2 -172.7,431.3 -199.9,442.6 				"/>
				<polygon clip-path="url(#SVGID_2_)" fill="#F5D55A" points="-199.9,442.4 -172.7,431.1 -172.7,431.2 -199.9,442.5 				"/>
				<polygon clip-path="url(#SVGID_2_)" fill="#F4D559" points="-199.9,442.3 -172.7,431 -172.7,431.1 -199.9,442.4 				"/>
				<polygon clip-path="url(#SVGID_2_)" fill="#F4D558" points="-199.9,442.2 -172.7,430.9 -172.7,431 -199.9,442.3 				"/>
				<polygon clip-path="url(#SVGID_2_)" fill="#F4D557" points="-199.9,442.1 -172.7,430.8 -172.7,430.9 -199.9,442.2 				"/>
				<polygon clip-path="url(#SVGID_2_)" fill="#F4D456" points="-199.9,442 -172.7,430.7 -172.7,430.8 -199.9,442.1 				"/>
				<polygon clip-path="url(#SVGID_2_)" fill="#F4D455" points="-199.9,441.9 -172.7,430.6 -172.7,430.7 -199.9,442 				"/>
				<polygon clip-path="url(#SVGID_2_)" fill="#F4D454" points="-199.9,441.8 -172.7,430.5 -172.7,430.6 -199.9,441.9 				"/>
				<polygon clip-path="url(#SVGID_2_)" fill="#F4D452" points="-199.9,441.7 -172.7,430.4 -172.7,430.5 -199.9,441.8 				"/>
				<polygon clip-path="url(#SVGID_2_)" fill="#F4D451" points="-199.9,441.6 -172.7,430.3 -172.7,430.4 -199.9,441.7 				"/>
				<polygon clip-path="url(#SVGID_2_)" fill="#F4D450" points="-199.9,441.5 -172.7,430.2 -172.7,430.3 -199.9,441.6 				"/>
				<polygon clip-path="url(#SVGID_2_)" fill="#F4D34F" points="-199.9,441.4 -172.7,430.1 -172.7,430.2 -199.9,441.5 				"/>
				<polygon clip-path="url(#SVGID_2_)" fill="#F4D34E" points="-199.9,441.3 -172.7,430 -172.7,430.1 -199.9,441.4 				"/>
				<polygon clip-path="url(#SVGID_2_)" fill="#F4D34D" points="-199.9,441.2 -172.7,429.9 -172.7,430 -199.9,441.3 				"/>
				<polygon clip-path="url(#SVGID_2_)" fill="#F4D34C" points="-199.9,441.1 -172.7,429.8 -172.7,429.9 -199.9,441.2 				"/>
				<polygon clip-path="url(#SVGID_2_)" fill="#F4D34B" points="-199.9,441 -172.7,429.7 -172.7,429.8 -199.9,441.1 				"/>
				<polygon clip-path="url(#SVGID_2_)" fill="#F4D34A" points="-199.9,440.9 -172.7,429.6 -172.7,429.7 -199.9,441 				"/>
				<polygon clip-path="url(#SVGID_2_)" fill="#F4D249" points="-199.9,440.8 -172.7,429.5 -172.7,429.6 -199.9,440.9 				"/>
				<polygon clip-path="url(#SVGID_2_)" fill="#F4D248" points="-199.9,440.7 -172.7,429.4 -172.7,429.5 -199.9,440.8 				"/>
				<polygon clip-path="url(#SVGID_2_)" fill="#F4D246" points="-199.9,440.6 -172.7,429.3 -172.7,429.4 -199.9,440.7 				"/>
				<polygon clip-path="url(#SVGID_2_)" fill="#F3D245" points="-199.9,440.5 -172.7,429.2 -172.7,429.3 -199.9,440.6 				"/>
				<polygon clip-path="url(#SVGID_2_)" fill="#F3D244" points="-199.9,440.4 -172.7,429.1 -172.7,429.2 -199.9,440.5 				"/>
				<polygon clip-path="url(#SVGID_2_)" fill="#F3D243" points="-199.9,440.3 -172.7,429 -172.7,429.1 -199.9,440.4 				"/>
				<polygon clip-path="url(#SVGID_2_)" fill="#F3D142" points="-199.9,440.2 -172.7,428.9 -172.7,429 -199.9,440.3 				"/>
				<polygon clip-path="url(#SVGID_2_)" fill="#F3D141" points="-199.9,440.1 -172.7,428.8 -172.7,428.9 -199.9,440.2 				"/>
				<polygon clip-path="url(#SVGID_2_)" fill="#F3D140" points="-199.9,440 -172.7,428.7 -172.7,428.8 -199.9,440.1 				"/>
				<polygon clip-path="url(#SVGID_2_)" fill="#F3D13E" points="-199.9,439.9 -172.7,428.6 -172.7,428.7 -199.9,440 				"/>
				<polygon clip-path="url(#SVGID_2_)" fill="#F3D13D" points="-199.9,439.8 -172.7,428.5 -172.7,428.6 -199.9,439.9 				"/>
				<polygon clip-path="url(#SVGID_2_)" fill="#F3D13C" points="-199.9,439.7 -172.7,428.4 -172.7,428.5 -199.9,439.8 				"/>
				<polygon clip-path="url(#SVGID_2_)" fill="#F3D03B" points="-199.9,439.6 -172.7,428.3 -172.7,428.4 -199.9,439.7 				"/>
				<polygon clip-path="url(#SVGID_2_)" fill="#F3D03A" points="-199.9,439.5 -172.7,428.2 -172.7,428.3 -199.9,439.6 				"/>
				<polygon clip-path="url(#SVGID_2_)" fill="#F3D038" points="-199.9,439.4 -172.7,428.1 -172.7,428.2 -199.9,439.5 				"/>
				<polygon clip-path="url(#SVGID_2_)" fill="#F3D037" points="-199.9,439.3 -172.7,428 -172.7,428.1 -199.9,439.4 				"/>
				<polygon clip-path="url(#SVGID_2_)" fill="#F3D036" points="-199.9,439.2 -172.7,427.9 -172.7,428 -199.9,439.3 				"/>
				<polygon clip-path="url(#SVGID_2_)" fill="#F3D035" points="-199.9,439.1 -172.7,427.8 -172.7,427.9 -199.9,439.2 				"/>
				<polygon clip-path="url(#SVGID_2_)" fill="#F3CF33" points="-199.9,439 -172.7,427.7 -172.7,427.8 -199.9,439.1 				"/>
				<polygon clip-path="url(#SVGID_2_)" fill="#F2CF32" points="-199.9,438.9 -172.7,427.6 -172.7,427.7 -199.9,439 				"/>
				<polygon clip-path="url(#SVGID_2_)" fill="#F2CF31" points="-199.9,438.8 -172.7,427.5 -172.7,427.6 -199.9,438.9 				"/>
				<polygon clip-path="url(#SVGID_2_)" fill="#F2CF30" points="-199.9,438.7 -172.7,427.4 -172.7,427.5 -199.9,438.8 				"/>
				<polygon clip-path="url(#SVGID_2_)" fill="#F2CF2E" points="-199.9,438.6 -172.7,427.3 -172.7,427.4 -199.9,438.7 				"/>
				<polygon clip-path="url(#SVGID_2_)" fill="#F2CF2D" points="-199.9,438.5 -172.7,427.2 -172.7,427.3 -199.9,438.6 				"/>
				<polygon clip-path="url(#SVGID_2_)" fill="#F2CF2C" points="-199.9,438.4 -172.7,427.1 -172.7,427.2 -199.9,438.5 				"/>
				<polygon clip-path="url(#SVGID_2_)" fill="#F2CE2B" points="-199.9,438.3 -172.7,427 -172.7,427.1 -199.9,438.4 				"/>
				<polygon clip-path="url(#SVGID_2_)" fill="#F2CE29" points="-199.9,438.2 -172.7,426.9 -172.7,427 -199.9,438.3 				"/>
				<polygon clip-path="url(#SVGID_2_)" fill="#F2CE28" points="-199.9,438.1 -172.7,426.8 -172.7,426.9 -199.9,438.2 				"/>
				<polygon clip-path="url(#SVGID_2_)" fill="#F2CE26" points="-199.9,438 -172.7,426.7 -172.7,426.8 -199.9,438.1 				"/>
				<polygon clip-path="url(#SVGID_2_)" fill="#F2CE25" points="-199.9,437.9 -172.7,426.6 -172.7,426.7 -199.9,438 				"/>
				<polygon clip-path="url(#SVGID_2_)" fill="#F2CE23" points="-199.9,437.8 -172.7,426.5 -172.7,426.6 -199.9,437.9 				"/>
				<polygon clip-path="url(#SVGID_2_)" fill="#F2CD21" points="-199.9,437.7 -172.7,426.4 -172.7,426.5 -199.9,437.8 				"/>
				<polygon clip-path="url(#SVGID_2_)" fill="#F2CD20" points="-199.9,437.6 -172.7,426.3 -172.7,426.4 -199.9,437.7 				"/>
				<polygon clip-path="url(#SVGID_2_)" fill="#F2CD1E" points="-199.9,437.5 -172.7,426.2 -172.7,426.3 -199.9,437.6 				"/>
				<polygon clip-path="url(#SVGID_2_)" fill="#F2CD1C" points="-199.9,437.4 -172.7,426.1 -172.7,426.2 -199.9,437.5 				"/>
				<polygon clip-path="url(#SVGID_2_)" fill="#F1CD1A" points="-199.9,437.3 -172.7,426 -172.7,426.1 -199.9,437.4 				"/>
				<polygon clip-path="url(#SVGID_2_)" fill="#F1CD18" points="-199.9,437.2 -172.7,425.9 -172.7,426 -199.9,437.3 				"/>
				<polygon clip-path="url(#SVGID_2_)" fill="#F1CD16" points="-199.9,437.1 -172.7,425.8 -172.7,425.9 -199.9,437.2 				"/>
				<polygon clip-path="url(#SVGID_2_)" fill="#F1CC14" points="-199.9,437 -172.7,425.7 -172.7,425.8 -199.9,437.1 				"/>
				<polygon clip-path="url(#SVGID_2_)" fill="#F1CC12" points="-199.9,436.9 -172.7,425.6 -172.7,425.7 -199.9,437 				"/>
				<polygon clip-path="url(#SVGID_2_)" fill="#F1CC10" points="-199.9,436.8 -172.7,425.5 -172.7,425.6 -199.9,436.9 				"/>
				<polygon clip-path="url(#SVGID_2_)" fill="#F1CC0D" points="-199.9,436.7 -172.7,425.4 -172.7,425.5 -199.9,436.8 				"/>
				<polygon clip-path="url(#SVGID_2_)" fill="#F1CC0B" points="-199.9,436.6 -172.7,425.3 -172.7,425.4 -199.9,436.7 				"/>
				<polygon clip-path="url(#SVGID_2_)" fill="#F1CC08" points="-199.9,436.5 -172.7,425.2 -172.7,425.3 -199.9,436.6 				"/>
				<polygon clip-path="url(#SVGID_2_)" fill="#F1CC05" points="-199.9,436.4 -172.7,425.1 -172.7,425.2 -199.9,436.5 				"/>
				<polygon clip-path="url(#SVGID_2_)" fill="#F1CB03" points="-199.9,436.3 -172.7,425 -172.7,425.1 -199.9,436.4 				"/>
				<polygon clip-path="url(#SVGID_2_)" fill="#F1CB00" points="-199.9,436.2 -172.7,424.9 -172.7,425 -199.9,436.3 				"/>
				<polygon clip-path="url(#SVGID_2_)" fill="#F1CB00" points="-199.9,436.1 -172.7,424.8 -172.7,424.9 -199.9,436.2 				"/>
				<polygon clip-path="url(#SVGID_2_)" fill="#F1CB00" points="-199.9,436 -172.7,424.7 -172.7,424.8 -199.9,436.1 				"/>
				<polygon clip-path="url(#SVGID_2_)" fill="#F1CB00" points="-173.1,420.1 -172.7,421 -172.7,424.7 -199.9,436 -199.9,420.1 				
					"/>
			</g>
		</g>
		<g>
			<g>
				<g>
					<defs>
						<path id="SVGID_3_" d="M-179.8,420.3c-1.1-1.1-1.9-1.8-2.6-2.1c-1.6-0.9-3.5-1.3-5.9-1.3c-3.7,0-6.6,1.4-8.8,4.2
							c-2,2.5-3,5.6-3,9.2c0,3.2,1,5.9,3.1,8.3c2.3,2.6,5.3,3.6,9,4.2c13.3,2,19-11,19-11c0,4-1.6,7.6-4.8,11.1
							c-3.8,4.1-8.7,6.1-14.6,6.1c-5,0-9.3-1.8-13.1-5.4c-3.7-3.6-5.6-8-5.6-13c0-6.4,2.1-11.4,6.3-15.2c3.6-3.2,7.8-4.8,12.6-4.8
							c4.2,0,7.7,0.9,10.6,2.8c2.9,1.9,5.3,4.9,7.4,8.8l-24.8,13.8L-179.8,420.3z"/>
					</defs>
					<clipPath id="SVGID_4_">
						<use xlink:href="#SVGID_3_"  overflow="visible"/>
					</clipPath>
					<rect x="-207.2" y="410.5" clip-path="url(#SVGID_4_)" fill="#B5121B" width="38.2" height="38.4"/>
					<circle clip-path="url(#SVGID_4_)" fill="#B5121B" cx="-195.6" cy="426.4" r="12.2"/>
					<circle clip-path="url(#SVGID_4_)" fill="#B5131B" cx="-195.6" cy="426.4" r="12.1"/>
					<circle clip-path="url(#SVGID_4_)" fill="#B5151C" cx="-195.6" cy="426.4" r="12.1"/>
					<circle clip-path="url(#SVGID_4_)" fill="#B5161C" cx="-195.6" cy="426.4" r="12"/>
					<circle clip-path="url(#SVGID_4_)" fill="#B6181C" cx="-195.6" cy="426.4" r="12"/>
					<circle clip-path="url(#SVGID_4_)" fill="#B6191D" cx="-195.6" cy="426.4" r="11.9"/>
					<circle clip-path="url(#SVGID_4_)" fill="#B61B1D" cx="-195.6" cy="426.4" r="11.9"/>
					<circle clip-path="url(#SVGID_4_)" fill="#B61C1E" cx="-195.6" cy="426.4" r="11.8"/>
					<circle clip-path="url(#SVGID_4_)" fill="#B71E1E" cx="-195.6" cy="426.4" r="11.8"/>
					<circle clip-path="url(#SVGID_4_)" fill="#B71F1F" cx="-195.6" cy="426.4" r="11.8"/>
					<circle clip-path="url(#SVGID_4_)" fill="#B7201F" cx="-195.6" cy="426.4" r="11.7"/>
					<circle clip-path="url(#SVGID_4_)" fill="#B82120" cx="-195.6" cy="426.4" r="11.7"/>
					<circle clip-path="url(#SVGID_4_)" fill="#B82320" cx="-195.6" cy="426.4" r="11.6"/>
					<circle clip-path="url(#SVGID_4_)" fill="#B82421" cx="-195.6" cy="426.4" r="11.6"/>
					<circle clip-path="url(#SVGID_4_)" fill="#B82521" cx="-195.6" cy="426.4" r="11.5"/>
					<circle clip-path="url(#SVGID_4_)" fill="#B92622" cx="-195.6" cy="426.4" r="11.5"/>
					<circle clip-path="url(#SVGID_4_)" fill="#B92722" cx="-195.6" cy="426.4" r="11.4"/>
					<circle clip-path="url(#SVGID_4_)" fill="#B92922" cx="-195.6" cy="426.4" r="11.4"/>
					<circle clip-path="url(#SVGID_4_)" fill="#B92A23" cx="-195.6" cy="426.4" r="11.3"/>
					<circle clip-path="url(#SVGID_4_)" fill="#BA2B23" cx="-195.6" cy="426.4" r="11.3"/>
					<circle clip-path="url(#SVGID_4_)" fill="#BA2C24" cx="-195.6" cy="426.4" r="11.2"/>
					<circle clip-path="url(#SVGID_4_)" fill="#BA2D24" cx="-195.6" cy="426.4" r="11.2"/>
					<circle clip-path="url(#SVGID_4_)" fill="#BA2E25" cx="-195.6" cy="426.4" r="11.2"/>
					<circle clip-path="url(#SVGID_4_)" fill="#BB2F25" cx="-195.6" cy="426.4" r="11.1"/>
					<circle clip-path="url(#SVGID_4_)" fill="#BB3026" cx="-195.6" cy="426.4" r="11.1"/>
					<circle clip-path="url(#SVGID_4_)" fill="#BB3126" cx="-195.6" cy="426.4" r="11"/>
					<circle clip-path="url(#SVGID_4_)" fill="#BB3227" cx="-195.6" cy="426.4" r="11"/>
					<circle clip-path="url(#SVGID_4_)" fill="#BC3327" cx="-195.6" cy="426.4" r="10.9"/>
					<circle clip-path="url(#SVGID_4_)" fill="#BC3428" cx="-195.6" cy="426.4" r="10.9"/>
					<circle clip-path="url(#SVGID_4_)" fill="#BC3529" cx="-195.6" cy="426.4" r="10.8"/>
					<circle clip-path="url(#SVGID_4_)" fill="#BC3529" cx="-195.6" cy="426.4" r="10.8"/>
					<circle clip-path="url(#SVGID_4_)" fill="#BD362A" cx="-195.6" cy="426.4" r="10.7"/>
					<circle clip-path="url(#SVGID_4_)" fill="#BD372A" cx="-195.6" cy="426.4" r="10.7"/>
					<circle clip-path="url(#SVGID_4_)" fill="#BD382B" cx="-195.6" cy="426.4" r="10.6"/>
					<circle clip-path="url(#SVGID_4_)" fill="#BE392B" cx="-195.6" cy="426.4" r="10.6"/>
					<circle clip-path="url(#SVGID_4_)" fill="#BE3A2C" cx="-195.6" cy="426.4" r="10.5"/>
					<circle clip-path="url(#SVGID_4_)" fill="#BE3B2D" cx="-195.6" cy="426.4" r="10.5"/>
					<circle clip-path="url(#SVGID_4_)" fill="#BE3C2D" cx="-195.6" cy="426.4" r="10.5"/>
					<circle clip-path="url(#SVGID_4_)" fill="#BF3D2E" cx="-195.6" cy="426.4" r="10.4"/>
					<circle clip-path="url(#SVGID_4_)" fill="#BF3E2F" cx="-195.6" cy="426.4" r="10.4"/>
					<circle clip-path="url(#SVGID_4_)" fill="#BF3F2F" cx="-195.6" cy="426.4" r="10.3"/>
					<circle clip-path="url(#SVGID_4_)" fill="#C04030" cx="-195.6" cy="426.4" r="10.3"/>
					<circle clip-path="url(#SVGID_4_)" fill="#C04130" cx="-195.6" cy="426.4" r="10.2"/>
					<circle clip-path="url(#SVGID_4_)" fill="#C04231" cx="-195.6" cy="426.4" r="10.2"/>
					<circle clip-path="url(#SVGID_4_)" fill="#C04232" cx="-195.6" cy="426.4" r="10.1"/>
					<circle clip-path="url(#SVGID_4_)" fill="#C14332" cx="-195.6" cy="426.4" r="10.1"/>
					<circle clip-path="url(#SVGID_4_)" fill="#C14433" cx="-195.6" cy="426.4" r="10"/>
					<circle clip-path="url(#SVGID_4_)" fill="#C14534" cx="-195.6" cy="426.4" r="10"/>
					<circle clip-path="url(#SVGID_4_)" fill="#C14634" cx="-195.6" cy="426.4" r="9.9"/>
					<circle clip-path="url(#SVGID_4_)" fill="#C24735" cx="-195.6" cy="426.4" r="9.9"/>
					<circle clip-path="url(#SVGID_4_)" fill="#C24836" cx="-195.6" cy="426.4" r="9.9"/>
					<circle clip-path="url(#SVGID_4_)" fill="#C24836" cx="-195.6" cy="426.4" r="9.8"/>
					<circle clip-path="url(#SVGID_4_)" fill="#C34937" cx="-195.6" cy="426.4" r="9.8"/>
					<circle clip-path="url(#SVGID_4_)" fill="#C34A38" cx="-195.6" cy="426.4" r="9.7"/>
					<circle clip-path="url(#SVGID_4_)" fill="#C34B38" cx="-195.6" cy="426.4" r="9.7"/>
					<circle clip-path="url(#SVGID_4_)" fill="#C34C39" cx="-195.6" cy="426.4" r="9.6"/>
					<circle clip-path="url(#SVGID_4_)" fill="#C44D39" cx="-195.6" cy="426.4" r="9.6"/>
					<circle clip-path="url(#SVGID_4_)" fill="#C44D3A" cx="-195.6" cy="426.4" r="9.5"/>
					<circle clip-path="url(#SVGID_4_)" fill="#C44E3B" cx="-195.6" cy="426.4" r="9.5"/>
					<circle clip-path="url(#SVGID_4_)" fill="#C44F3C" cx="-195.6" cy="426.4" r="9.4"/>
					<circle clip-path="url(#SVGID_4_)" fill="#C5503C" cx="-195.6" cy="426.4" r="9.4"/>
					<circle clip-path="url(#SVGID_4_)" fill="#C5513D" cx="-195.6" cy="426.4" r="9.3"/>
					<circle clip-path="url(#SVGID_4_)" fill="#C5523E" cx="-195.6" cy="426.4" r="9.3"/>
					<circle clip-path="url(#SVGID_4_)" fill="#C5523E" cx="-195.6" cy="426.4" r="9.2"/>
					<circle clip-path="url(#SVGID_4_)" fill="#C6533F" cx="-195.6" cy="426.4" r="9.2"/>
					<circle clip-path="url(#SVGID_4_)" fill="#C65440" cx="-195.6" cy="426.4" r="9.2"/>
					<circle clip-path="url(#SVGID_4_)" fill="#C65540" cx="-195.6" cy="426.4" r="9.1"/>
					<circle clip-path="url(#SVGID_4_)" fill="#C75641" cx="-195.6" cy="426.4" r="9.1"/>
					<circle clip-path="url(#SVGID_4_)" fill="#C75742" cx="-195.6" cy="426.4" r="9"/>
					<circle clip-path="url(#SVGID_4_)" fill="#C75743" cx="-195.6" cy="426.4" r="9"/>
					<circle clip-path="url(#SVGID_4_)" fill="#C75843" cx="-195.6" cy="426.4" r="8.9"/>
					<circle clip-path="url(#SVGID_4_)" fill="#C85944" cx="-195.6" cy="426.4" r="8.9"/>
					<circle clip-path="url(#SVGID_4_)" fill="#C85A45" cx="-195.6" cy="426.4" r="8.8"/>
					<circle clip-path="url(#SVGID_4_)" fill="#C85B45" cx="-195.6" cy="426.4" r="8.8"/>
					<circle clip-path="url(#SVGID_4_)" fill="#C95B46" cx="-195.6" cy="426.4" r="8.7"/>
					<circle clip-path="url(#SVGID_4_)" fill="#C95C47" cx="-195.6" cy="426.4" r="8.7"/>
					<circle clip-path="url(#SVGID_4_)" fill="#C95D47" cx="-195.6" cy="426.4" r="8.6"/>
					<circle clip-path="url(#SVGID_4_)" fill="#C95E48" cx="-195.6" cy="426.4" r="8.6"/>
					<circle clip-path="url(#SVGID_4_)" fill="#CA5F49" cx="-195.6" cy="426.4" r="8.6"/>
					<circle clip-path="url(#SVGID_4_)" fill="#CA5F4A" cx="-195.6" cy="426.4" r="8.5"/>
					<circle clip-path="url(#SVGID_4_)" fill="#CA604A" cx="-195.6" cy="426.4" r="8.5"/>
					<circle clip-path="url(#SVGID_4_)" fill="#CB614B" cx="-195.6" cy="426.4" r="8.4"/>
					<circle clip-path="url(#SVGID_4_)" fill="#CB624C" cx="-195.6" cy="426.4" r="8.4"/>
					<circle clip-path="url(#SVGID_4_)" fill="#CB624C" cx="-195.6" cy="426.4" r="8.3"/>
					<circle clip-path="url(#SVGID_4_)" fill="#CB634D" cx="-195.6" cy="426.4" r="8.3"/>
					<circle clip-path="url(#SVGID_4_)" fill="#CC644E" cx="-195.6" cy="426.4" r="8.2"/>
					<circle clip-path="url(#SVGID_4_)" fill="#CC654E" cx="-195.6" cy="426.4" r="8.2"/>
					<circle clip-path="url(#SVGID_4_)" fill="#CC664F" cx="-195.6" cy="426.4" r="8.1"/>
					<circle clip-path="url(#SVGID_4_)" fill="#CC6650" cx="-195.6" cy="426.4" r="8.1"/>
					<circle clip-path="url(#SVGID_4_)" fill="#CD6751" cx="-195.6" cy="426.4" r="8"/>
					<circle clip-path="url(#SVGID_4_)" fill="#CD6851" cx="-195.6" cy="426.4" r="8"/>
					<circle clip-path="url(#SVGID_4_)" fill="#CD6952" cx="-195.6" cy="426.4" r="7.9"/>
					<circle clip-path="url(#SVGID_4_)" fill="#CD6953" cx="-195.6" cy="426.4" r="7.9"/>
					<circle clip-path="url(#SVGID_4_)" fill="#CE6A53" cx="-195.6" cy="426.4" r="7.9"/>
					<circle clip-path="url(#SVGID_4_)" fill="#CE6B54" cx="-195.6" cy="426.4" r="7.8"/>
					<circle clip-path="url(#SVGID_4_)" fill="#CE6C55" cx="-195.6" cy="426.4" r="7.8"/>
					<circle clip-path="url(#SVGID_4_)" fill="#CF6C56" cx="-195.6" cy="426.4" r="7.7"/>
					<circle clip-path="url(#SVGID_4_)" fill="#CF6D56" cx="-195.6" cy="426.4" r="7.7"/>
					<circle clip-path="url(#SVGID_4_)" fill="#CF6E57" cx="-195.6" cy="426.4" r="7.6"/>
					<circle clip-path="url(#SVGID_4_)" fill="#CF6F58" cx="-195.6" cy="426.4" r="7.6"/>
					<circle clip-path="url(#SVGID_4_)" fill="#D06F59" cx="-195.6" cy="426.4" r="7.5"/>
					<circle clip-path="url(#SVGID_4_)" fill="#D07059" cx="-195.6" cy="426.4" r="7.5"/>
					<circle clip-path="url(#SVGID_4_)" fill="#D0715A" cx="-195.6" cy="426.4" r="7.4"/>
					<circle clip-path="url(#SVGID_4_)" fill="#D1725B" cx="-195.6" cy="426.4" r="7.4"/>
					<circle clip-path="url(#SVGID_4_)" fill="#D1725B" cx="-195.6" cy="426.4" r="7.3"/>
					<circle clip-path="url(#SVGID_4_)" fill="#D1735C" cx="-195.6" cy="426.4" r="7.3"/>
					<circle clip-path="url(#SVGID_4_)" fill="#D2745D" cx="-195.6" cy="426.4" r="7.3"/>
					<circle clip-path="url(#SVGID_4_)" fill="#D2755E" cx="-195.6" cy="426.4" r="7.2"/>
					<circle clip-path="url(#SVGID_4_)" fill="#D2765E" cx="-195.6" cy="426.4" r="7.2"/>
					<circle clip-path="url(#SVGID_4_)" fill="#D2765F" cx="-195.6" cy="426.4" r="7.1"/>
					<circle clip-path="url(#SVGID_4_)" fill="#D37760" cx="-195.6" cy="426.4" r="7.1"/>
					<circle clip-path="url(#SVGID_4_)" fill="#D37861" cx="-195.6" cy="426.4" r="7"/>
					<circle clip-path="url(#SVGID_4_)" fill="#D37962" cx="-195.6" cy="426.4" r="7"/>
					<circle clip-path="url(#SVGID_4_)" fill="#D37962" cx="-195.6" cy="426.4" r="6.9"/>
					<circle clip-path="url(#SVGID_4_)" fill="#D47A63" cx="-195.6" cy="426.4" r="6.9"/>
					<circle clip-path="url(#SVGID_4_)" fill="#D47B64" cx="-195.6" cy="426.4" r="6.8"/>
					<circle clip-path="url(#SVGID_4_)" fill="#D47C65" cx="-195.6" cy="426.4" r="6.8"/>
					<circle clip-path="url(#SVGID_4_)" fill="#D57C65" cx="-195.6" cy="426.4" r="6.7"/>
					<circle clip-path="url(#SVGID_4_)" fill="#D57D66" cx="-195.6" cy="426.4" r="6.7"/>
					<circle clip-path="url(#SVGID_4_)" fill="#D57E67" cx="-195.6" cy="426.4" r="6.7"/>
					<circle clip-path="url(#SVGID_4_)" fill="#D57F68" cx="-195.6" cy="426.4" r="6.6"/>
					<circle clip-path="url(#SVGID_4_)" fill="#D68069" cx="-195.6" cy="426.4" r="6.6"/>
					<circle clip-path="url(#SVGID_4_)" fill="#D68069" cx="-195.6" cy="426.4" r="6.5"/>
					<circle clip-path="url(#SVGID_4_)" fill="#D6816A" cx="-195.6" cy="426.4" r="6.5"/>
					<circle clip-path="url(#SVGID_4_)" fill="#D6826B" cx="-195.6" cy="426.4" r="6.4"/>
					<circle clip-path="url(#SVGID_4_)" fill="#D7836C" cx="-195.6" cy="426.4" r="6.4"/>
					<circle clip-path="url(#SVGID_4_)" fill="#D7836D" cx="-195.6" cy="426.4" r="6.3"/>
					<circle clip-path="url(#SVGID_4_)" fill="#D7846D" cx="-195.6" cy="426.4" r="6.3"/>
					<circle clip-path="url(#SVGID_4_)" fill="#D8856E" cx="-195.6" cy="426.4" r="6.2"/>
					<circle clip-path="url(#SVGID_4_)" fill="#D8866F" cx="-195.6" cy="426.4" r="6.2"/>
					<circle clip-path="url(#SVGID_4_)" fill="#D88770" cx="-195.6" cy="426.4" r="6.1"/>
					<circle clip-path="url(#SVGID_4_)" fill="#D88771" cx="-195.6" cy="426.4" r="6.1"/>
					<circle clip-path="url(#SVGID_4_)" fill="#D98872" cx="-195.6" cy="426.4" r="6"/>
					<circle clip-path="url(#SVGID_4_)" fill="#D98972" cx="-195.6" cy="426.4" r="6"/>
					<circle clip-path="url(#SVGID_4_)" fill="#D98A73" cx="-195.6" cy="426.4" r="6"/>
					<circle clip-path="url(#SVGID_4_)" fill="#DA8B74" cx="-195.6" cy="426.4" r="5.9"/>
					<circle clip-path="url(#SVGID_4_)" fill="#DA8C75" cx="-195.6" cy="426.4" r="5.9"/>
					<circle clip-path="url(#SVGID_4_)" fill="#DA8C76" cx="-195.6" cy="426.4" r="5.8"/>
					<circle clip-path="url(#SVGID_4_)" fill="#DB8D77" cx="-195.6" cy="426.4" r="5.8"/>
					<circle clip-path="url(#SVGID_4_)" fill="#DB8E78" cx="-195.6" cy="426.4" r="5.7"/>
					<circle clip-path="url(#SVGID_4_)" fill="#DB8F79" cx="-195.6" cy="426.4" r="5.7"/>
					<circle clip-path="url(#SVGID_4_)" fill="#DB9079" cx="-195.6" cy="426.4" r="5.6"/>
					<circle clip-path="url(#SVGID_4_)" fill="#DC907A" cx="-195.6" cy="426.4" r="5.6"/>
					<circle clip-path="url(#SVGID_4_)" fill="#DC917B" cx="-195.6" cy="426.4" r="5.5"/>
					<circle clip-path="url(#SVGID_4_)" fill="#DC927C" cx="-195.6" cy="426.4" r="5.5"/>
					<circle clip-path="url(#SVGID_4_)" fill="#DD937D" cx="-195.6" cy="426.4" r="5.4"/>
					<circle clip-path="url(#SVGID_4_)" fill="#DD947E" cx="-195.6" cy="426.4" r="5.4"/>
					<circle clip-path="url(#SVGID_4_)" fill="#DD957F" cx="-195.6" cy="426.4" r="5.4"/>
					<circle clip-path="url(#SVGID_4_)" fill="#DD9580" cx="-195.6" cy="426.4" r="5.3"/>
					<circle clip-path="url(#SVGID_4_)" fill="#DE9681" cx="-195.6" cy="426.4" r="5.3"/>
					<circle clip-path="url(#SVGID_4_)" fill="#DE9782" cx="-195.6" cy="426.4" r="5.2"/>
					<circle clip-path="url(#SVGID_4_)" fill="#DE9883" cx="-195.6" cy="426.4" r="5.2"/>
					<circle clip-path="url(#SVGID_4_)" fill="#DF9984" cx="-195.6" cy="426.4" r="5.1"/>
					<circle clip-path="url(#SVGID_4_)" fill="#DF9A84" cx="-195.6" cy="426.4" r="5.1"/>
					<circle clip-path="url(#SVGID_4_)" fill="#DF9B85" cx="-195.6" cy="426.4" r="5"/>
					<circle clip-path="url(#SVGID_4_)" fill="#DF9B86" cx="-195.6" cy="426.4" r="5"/>
					<circle clip-path="url(#SVGID_4_)" fill="#E09C87" cx="-195.6" cy="426.4" r="4.9"/>
					<circle clip-path="url(#SVGID_4_)" fill="#E09D88" cx="-195.6" cy="426.4" r="4.9"/>
					<circle clip-path="url(#SVGID_4_)" fill="#E09E89" cx="-195.6" cy="426.4" r="4.8"/>
					<circle clip-path="url(#SVGID_4_)" fill="#E19F8A" cx="-195.6" cy="426.4" r="4.8"/>
					<circle clip-path="url(#SVGID_4_)" fill="#E1A08B" cx="-195.6" cy="426.4" r="4.7"/>
					<circle clip-path="url(#SVGID_4_)" fill="#E1A18C" cx="-195.6" cy="426.4" r="4.7"/>
					<circle clip-path="url(#SVGID_4_)" fill="#E1A28D" cx="-195.6" cy="426.4" r="4.7"/>
					<circle clip-path="url(#SVGID_4_)" fill="#E2A28E" cx="-195.6" cy="426.4" r="4.6"/>
					<circle clip-path="url(#SVGID_4_)" fill="#E2A38F" cx="-195.6" cy="426.4" r="4.6"/>
					<circle clip-path="url(#SVGID_4_)" fill="#E2A490" cx="-195.6" cy="426.4" r="4.5"/>
					<circle clip-path="url(#SVGID_4_)" fill="#E3A591" cx="-195.6" cy="426.4" r="4.5"/>
					<circle clip-path="url(#SVGID_4_)" fill="#E3A692" cx="-195.6" cy="426.4" r="4.4"/>
					<circle clip-path="url(#SVGID_4_)" fill="#E3A793" cx="-195.6" cy="426.4" r="4.4"/>
					<circle clip-path="url(#SVGID_4_)" fill="#E4A894" cx="-195.6" cy="426.4" r="4.3"/>
					<circle clip-path="url(#SVGID_4_)" fill="#E4A995" cx="-195.6" cy="426.4" r="4.3"/>
					<circle clip-path="url(#SVGID_4_)" fill="#E4AA96" cx="-195.6" cy="426.4" r="4.2"/>
					<circle clip-path="url(#SVGID_4_)" fill="#E5AB97" cx="-195.6" cy="426.4" r="4.2"/>
					<circle clip-path="url(#SVGID_4_)" fill="#E5AB98" cx="-195.6" cy="426.4" r="4.1"/>
					<circle clip-path="url(#SVGID_4_)" fill="#E5AC99" cx="-195.6" cy="426.4" r="4.1"/>
					<circle clip-path="url(#SVGID_4_)" fill="#E6AD9A" cx="-195.6" cy="426.4" r="4.1"/>
					<circle clip-path="url(#SVGID_4_)" fill="#E6AE9B" cx="-195.6" cy="426.4" r="4"/>
					<circle clip-path="url(#SVGID_4_)" fill="#E6AF9C" cx="-195.6" cy="426.4" r="4"/>
					<circle clip-path="url(#SVGID_4_)" fill="#E6B09D" cx="-195.6" cy="426.4" r="3.9"/>
					<circle clip-path="url(#SVGID_4_)" fill="#E7B19E" cx="-195.6" cy="426.4" r="3.9"/>
					<circle clip-path="url(#SVGID_4_)" fill="#E7B29F" cx="-195.6" cy="426.4" r="3.8"/>
					<circle clip-path="url(#SVGID_4_)" fill="#E7B3A0" cx="-195.6" cy="426.4" r="3.8"/>
					<circle clip-path="url(#SVGID_4_)" fill="#E8B4A2" cx="-195.6" cy="426.4" r="3.7"/>
					<circle clip-path="url(#SVGID_4_)" fill="#E8B5A3" cx="-195.6" cy="426.4" r="3.7"/>
					<circle clip-path="url(#SVGID_4_)" fill="#E8B5A4" cx="-195.6" cy="426.4" r="3.6"/>
					<circle clip-path="url(#SVGID_4_)" fill="#E8B6A5" cx="-195.6" cy="426.4" r="3.6"/>
					<circle clip-path="url(#SVGID_4_)" fill="#E9B7A6" cx="-195.6" cy="426.4" r="3.5"/>
					<circle clip-path="url(#SVGID_4_)" fill="#E9B8A7" cx="-195.6" cy="426.4" r="3.5"/>
					<circle clip-path="url(#SVGID_4_)" fill="#E9B9A8" cx="-195.6" cy="426.4" r="3.4"/>
					<circle clip-path="url(#SVGID_4_)" fill="#EABAA9" cx="-195.6" cy="426.4" r="3.4"/>
					<circle clip-path="url(#SVGID_4_)" fill="#EABBAA" cx="-195.6" cy="426.4" r="3.4"/>
					<circle clip-path="url(#SVGID_4_)" fill="#EABCAB" cx="-195.6" cy="426.4" r="3.3"/>
					<circle clip-path="url(#SVGID_4_)" fill="#EABDAC" cx="-195.6" cy="426.4" r="3.3"/>
					<circle clip-path="url(#SVGID_4_)" fill="#EBBEAD" cx="-195.6" cy="426.4" r="3.2"/>
					<circle clip-path="url(#SVGID_4_)" fill="#EBBFAE" cx="-195.6" cy="426.4" r="3.2"/>
					<circle clip-path="url(#SVGID_4_)" fill="#EBC0AF" cx="-195.6" cy="426.4" r="3.1"/>
				</g>
			</g>
		</g>
		<g>
			<g>
				<path fill="#57844D" d="M-172.3,411.7c-8.6-8.6-22.6-8.6-31.2,0c-8.6,8.6-8.6,22.6,0,31.2c0.2,0.2,0.3,0.3,0.5,0.4
					c-7.7-8.2-7.5-21,0.4-28.9c8.1-8.1,21.3-8.1,29.4,0c8,8,8.1,20.8,0.4,28.9c0.2-0.1,0.3-0.3,0.5-0.4
					C-163.7,434.4-163.7,420.4-172.3,411.7z"/>
			</g>
			<g>
				<path fill="#57844D" d="M-186.9,403.9c0,0-4.4-16.3,21.2-15.5c-2.3,8.5-10.3,17-18.8,15.7c2.8-8,10.8-11.1,10.8-11.1
					S-180.2,393.8-186.9,403.9z"/>
			</g>
			<g>
				<path fill="#57844D" d="M-189.2,403.6c0,0,3.4-12.5-16.3-11.9c1.8,6.6,8,13.1,14.5,12.1c-2.2-6.2-8.4-8.6-8.4-8.6
					S-194.4,395.8-189.2,403.6z"/>
			</g>
		</g>
	</g>
	<g>
		<g>
			<g>
				<g>
					<path fill="#57844D" d="M-152.8,431.9h-10.5v-19.3h10.5v1.7h-8.6v7h8.3v1.7h-8.3v7.1h8.6V431.9z"/>
				</g>
				<g>
					<path fill="#57844D" d="M-138.6,417.6l-6.1,14.3h-2l-6-14.3l2.1,0l4.9,11.9l4.9-11.9L-138.6,417.6z"/>
				</g>
				<g>
					<g>
						<path fill="#57844D" d="M-131.4,419.2c-0.9,0-1.8,0.3-2.6,1c-0.6,0.5-1,1-1.2,1.6c-0.2,0.5-0.3,1.2-0.3,2.1v8h-1.9v-14.3h1.8
							v2.1c0.4-0.8,0.9-1.4,1.6-1.8s1.6-0.6,2.5-0.6V419.2z"/>
					</g>
					<g>
						<path fill="#57844D" d="M-116.8,424.7c0,2-0.7,3.8-2.2,5.3c-1.5,1.5-3.2,2.2-5.2,2.2c-2.1,0-3.8-0.7-5.3-2.1
							c-1.5-1.4-2.2-3.2-2.2-5.2c0-2.1,0.7-3.9,2.2-5.3c1.4-1.5,3.2-2.2,5.3-2.2c2,0,3.7,0.7,5.2,2.2
							C-117.5,421-116.8,422.7-116.8,424.7z M-118.7,424.7c0-1.5-0.5-2.7-1.6-3.8c-1.1-1.1-2.4-1.7-3.9-1.7c-1.6,0-2.9,0.6-4,1.7
							c-1.1,1.1-1.6,2.4-1.6,4c0,1.5,0.5,2.8,1.6,3.9c1.1,1.1,2.4,1.6,3.9,1.6c1.6,0,2.9-0.6,3.9-1.7
							C-119.2,427.6-118.7,426.2-118.7,424.7z"/>
					</g>
				</g>
				<g>
					<path fill="#57844D" d="M-102.9,431.9h-1.9v-7.5c0-0.9-0.1-1.6-0.2-2.1c-0.1-0.5-0.3-0.9-0.6-1.3c-0.9-1.2-2.1-1.8-3.7-1.8
						c-0.7,0-1.4,0.2-2,0.5c-0.6,0.3-1.1,0.7-1.5,1.3c-0.3,0.4-0.5,0.9-0.6,1.5c-0.1,0.6-0.1,1.2-0.1,2v7.5h-1.9v-14.3h1.8v2.1
						c1.1-1.6,2.6-2.4,4.4-2.4c1,0,1.9,0.2,2.8,0.6c0.9,0.4,1.6,1,2.3,1.8c0.5,0.6,0.9,1.3,1,2.1c0.2,0.8,0.3,1.6,0.3,2.6V431.9z"/>
				</g>
			</g>
			<g>
				<g>
					<path fill="#57844D" d="M-84.8,416.1H-91v4.5h5.9v3.5H-91v7.9h-3.6v-19.3h9.8V416.1z"/>
				</g>
				<g>
					<path fill="#57844D" d="M-68.5,424.7c0,2.1-0.8,3.9-2.3,5.4c-1.5,1.5-3.3,2.2-5.5,2.2c-2.1,0-3.9-0.7-5.4-2.2
						c-1.5-1.5-2.3-3.3-2.3-5.4c0-2.2,0.8-4,2.3-5.5c1.5-1.5,3.4-2.2,5.5-2.2c2.1,0,3.9,0.8,5.4,2.3
						C-69.2,420.8-68.5,422.6-68.5,424.7z M-71.9,424.7c0-1.2-0.4-2.2-1.2-3c-0.8-0.8-1.8-1.3-3-1.3c-1.1,0-2.1,0.4-2.9,1.3
						c-0.8,0.9-1.3,1.9-1.3,3c0,1.2,0.4,2.2,1.2,3c0.8,0.8,1.8,1.3,3,1.3c1.2,0,2.3-0.4,3.1-1.2C-72.3,426.9-71.9,425.9-71.9,424.7z
						"/>
				</g>
				<g>
					<path fill="#57844D" d="M-52.2,424.7c0,2.1-0.8,3.9-2.3,5.4c-1.5,1.5-3.3,2.2-5.5,2.2c-2.1,0-3.9-0.7-5.4-2.2
						c-1.5-1.5-2.3-3.3-2.3-5.4c0-2.2,0.8-4,2.3-5.5c1.5-1.5,3.4-2.2,5.5-2.2c2.1,0,3.9,0.8,5.4,2.3
						C-52.9,420.8-52.2,422.6-52.2,424.7z M-55.6,424.7c0-1.2-0.4-2.2-1.2-3c-0.8-0.8-1.8-1.3-3-1.3c-1.1,0-2.1,0.4-2.9,1.3
						c-0.8,0.9-1.3,1.9-1.3,3c0,1.2,0.4,2.2,1.2,3c0.8,0.8,1.8,1.3,3,1.3c1.2,0,2.3-0.4,3.1-1.2C-56,426.9-55.6,425.9-55.6,424.7z"
						/>
				</g>
				<g>
					<path fill="#57844D" d="M-36,431.9h-3.2v-2c-0.5,0.8-1.2,1.3-2.1,1.8c-0.9,0.4-1.8,0.6-2.7,0.6c-2,0-3.7-0.8-5.1-2.3
						c-1.4-1.5-2.1-3.3-2.1-5.3c0-2.1,0.6-3.9,1.8-5.3c1.3-1.6,3.2-2.4,5.5-2.4c0.9,0,1.7,0.2,2.5,0.5c0.8,0.3,1.4,0.8,2,1.5v-6.3
						h3.5V431.9z M-39.2,424.7c0-1.2-0.4-2.2-1.3-3c-0.9-0.8-1.9-1.2-3.1-1.2c-1.1,0-2.1,0.4-2.9,1.2c-0.8,0.8-1.3,1.8-1.3,2.9
						c0,1.2,0.4,2.2,1.2,3.1c0.8,0.9,1.8,1.3,3,1.3c1.2,0,2.2-0.4,3-1.3C-39.6,426.9-39.2,425.8-39.2,424.7z"/>
				</g>
			</g>
		</g>
		<g>
			<g>
				<g>
					<path fill="#AB5153" d="M-126.5,446c0.5-0.2,0.9-0.1,1,0.3c0.1,0.3-0.1,0.6-0.6,0.9c-0.8,0.5-1.1,1.1-0.9,1.8
						c0.2,0.5,0.5,0.9,1.1,1c0.5,0.1,1.1,0.1,1.8-0.1c1.3-0.4,2.4-1.1,3.2-2c0.5-0.6,0.7-1.2,0.5-1.9c-0.1-0.4-0.3-0.7-0.6-1
						c-0.3-0.3-0.7-0.6-1.2-1c-0.8-0.6-1.5-1.1-2.1-1.6c-0.7-0.6-1.1-1.2-1.3-1.8c-0.5-1.6,0-3.3,1.5-5.3c0.8-1,1.7-1.9,2.7-2.7
						c0.9-0.7,1.8-1.1,2.7-1.4c0.6-0.2,1.1-0.2,1.6-0.1c0.6,0.2,1,0.5,1.1,1c0.3,0.8,0,1.9-0.8,3.2c-0.7,1.2-1.7,2.3-2.9,3.3
						c-0.6,0.5-1.1,0.8-1.4,0.9c-0.2,0.1-0.5,0.1-0.7-0.1c-0.2-0.1-0.2-0.2-0.3-0.3c-0.1-0.3,0.2-0.7,0.8-1.1c1.1-0.7,2-1.6,2.8-2.5
						c0.9-1.2,1.3-2.1,1.1-2.8c-0.1-0.2-0.3-0.4-0.5-0.5c-0.2-0.1-0.5-0.1-0.7,0c-0.7,0.2-1.5,0.7-2.4,1.4c-1.2,1-2.1,2.1-2.6,3.3
						c-0.5,1-0.6,1.9-0.3,2.7c0.2,0.6,0.5,1.1,1.1,1.6c0.5,0.4,1,0.8,1.7,1.3c0.6,0.4,1.2,0.9,1.7,1.3c0.5,0.5,0.9,1,1.1,1.5
						c0.3,1-0.1,2.1-1.2,3.3c-1,1-2.2,1.7-3.6,2.1c-1.4,0.4-2.7,0.4-3.7,0c-0.8-0.3-1.2-0.8-1.4-1.5c-0.2-0.7-0.1-1.4,0.3-2.1
						c0.3-0.4,0.6-0.8,1-1.1C-127,446.2-126.7,446.1-126.5,446z"/>
				</g>
				<g>
					<path fill="#AB5153" d="M-114,438.8c-0.4,1.1-0.7,2.2-1,3.4c-0.3,1.7-0.4,3-0.2,3.7c0.1,0.2,0.2,0.4,0.3,0.4
						c0.1,0.1,0.3,0.1,0.5,0c0.5-0.1,1-0.7,1.5-1.7c0.3-0.6,0.6-1.2,0.8-1.8c0.1-0.3,0.3-0.5,0.5-0.6c0.1,0,0.3,0,0.4,0
						c0.1,0.1,0.2,0.1,0.2,0.2c0.1,0.3-0.2,1.2-0.8,2.5c-0.8,1.6-1.6,2.6-2.6,2.9c-0.5,0.2-1,0.1-1.5-0.2c-0.3-0.2-0.5-0.5-0.6-1
						c-0.3-1-0.3-2.3,0-3.9c0.1-0.4,0.3-1.3,0.7-2.9c-0.3,0.1-0.5,0.2-0.6,0.2c-0.2,0.1-0.4,0.1-0.6,0c-0.3-0.1-0.4-0.2-0.5-0.3
						c-0.1-0.2,0-0.4,0.3-0.6c0.1-0.1,0.4-0.2,1.1-0.5c0.2-0.1,0.6-0.3,1-0.6c0.2-0.6,0.5-1.5,1-2.6c0.3-0.6,0.5-1,0.6-1.2
						c0.2-0.3,0.4-0.4,0.5-0.5c0.1,0,0.3,0,0.4,0.1c0.2,0.1,0.2,0.2,0.3,0.3c0.1,0.2-0.1,0.7-0.4,1.6c-0.2,0.5-0.4,1-0.5,1.3
						c1-0.6,1.8-1,2.3-1.1c0.5-0.2,0.9-0.1,1,0.3c0.1,0.2,0,0.4-0.2,0.5c-0.1,0.1-0.3,0.2-0.7,0.4c-0.2,0-0.9,0.4-2.1,1.2
						C-113.4,438.3-113.7,438.5-114,438.8z"/>
				</g>
				<g>
					<path fill="#AB5153" d="M-108.1,436.6c0.8-0.2,1.4,0.1,1.6,0.9c0.3,1.1,0.1,2.7-0.6,4.8c-0.8,2.3-1.8,3.6-3.1,4
						c-0.6,0.2-1.1,0.1-1.5-0.3c-0.2-0.2-0.4-0.4-0.5-0.8c-0.3-1.1-0.2-2.4,0.3-3.9c0.5-1.4,1.2-2.6,2.1-3.6
						C-109.2,437.2-108.7,436.8-108.1,436.6z M-108.3,441.9c-0.3-0.1-0.5-0.2-0.5-0.3c0-0.1,0.1-0.3,0.3-0.7c0.6-1.1,0.9-2,0.7-2.5
						c0-0.1-0.1-0.1-0.1-0.2c-0.1-0.1-0.3-0.1-0.4-0.1c-0.3,0.1-0.7,0.5-1.2,1.2c-0.6,0.9-1,1.8-1.2,2.6c-0.2,1-0.3,1.7-0.1,2.3
						c0,0.1,0.1,0.3,0.2,0.3c0.2,0.1,0.4,0.1,0.6,0.1c0.5-0.1,0.9-0.6,1.3-1.4c0.2-0.3,0.3-0.6,0.3-1
						C-108.3,442.1-108.3,441.9-108.3,441.9z"/>
				</g>
				<g>
					<path fill="#AB5153" d="M-104.2,439.7c0.7-1.2,1.6-2.4,2.6-3.6c0.4-0.4,0.8-0.9,1.2-1.3c0.2-0.2,0.4-0.3,0.4-0.3
						c0.1,0,0.3,0,0.5,0.1c0.1,0.1,0.2,0.2,0.2,0.2c0,0.1-0.1,0.4-0.4,0.8c-0.8,1-1.1,1.6-1,2c0.1,0.2,0.2,0.3,0.5,0.2
						c0.4-0.1,1.1-0.6,1.9-1.5c0.1-0.2,0.3-0.2,0.4-0.3c0.1,0,0.2,0,0.3,0c0.1,0.1,0.2,0.1,0.2,0.2c0.1,0.3-0.2,0.8-0.9,1.6
						c-0.7,0.8-1.4,1.4-2.2,1.6c-0.3,0.1-0.6,0.1-0.9,0c-0.3-0.1-0.4-0.2-0.5-0.5c-0.1-0.2,0-0.5,0.1-0.8c-0.7,0.7-1.3,1.8-2.1,3.3
						c-0.4,0.9-0.8,2-1.1,3.2c-0.1,0.5-0.3,0.7-0.7,0.8c-0.4,0.1-0.6,0-0.7-0.3c-0.1-0.3,0-1.1,0.2-2.6c0.3-2.1,0.8-3.8,1.4-5.1
						c0.4-0.8,0.8-1.3,1.2-1.4c0.1,0,0.3,0,0.4,0c0.2,0,0.3,0.1,0.3,0.3c0,0.1,0,0.3-0.1,0.6c0,0.1-0.2,0.4-0.5,1.1
						C-103.9,438.5-104.1,439.1-104.2,439.7z"/>
				</g>
				<g>
					<path fill="#AB5153" d="M-97.3,439.2l0.1,0.2c0.1,0.2,0.2,0.3,0.3,0.4c0.3,0.2,0.8,0.3,1.4,0.1c1.3-0.4,2.5-1.6,3.6-3.7
						c0.2-0.4,0.4-0.6,0.6-0.6c0.1,0,0.2,0,0.3,0.1c0.1,0,0.1,0.1,0.1,0.2c0.1,0.3-0.2,1-0.9,2.1c-0.6,0.8-1.2,1.6-1.9,2.2
						c-0.7,0.6-1.5,1.1-2.2,1.3c-0.8,0.2-1.4,0.2-2-0.1c-0.4-0.2-0.7-0.6-0.8-1.1c-0.4-1.4,0-3.1,1.1-4.9c1-1.5,1.9-2.4,2.9-2.7
						c0.3-0.1,0.5-0.1,0.8,0c0.3,0.1,0.5,0.3,0.6,0.6c0.1,0.4,0.1,1.1-0.2,1.9C-94.2,436.7-95.5,438.1-97.3,439.2z M-97.3,438.2
						c0.6-0.4,1.1-0.8,1.4-1.2c0.6-0.7,1-1.4,1.2-2.1c0.1-0.2,0.1-0.5,0.1-0.6c-0.1-0.2-0.2-0.2-0.4-0.2c-0.3,0.1-0.6,0.4-1,0.8
						C-96.6,435.8-97,436.9-97.3,438.2z"/>
				</g>
			</g>
			<g>
				<path fill="#57844D" d="M-95.8,446.2c0,0-14.2,1.9-13.7,7.6L-95.8,446.2z"/>
			</g>
		</g>
	</g>
</g>
</svg>
