<?xml version="1.0" encoding="UTF-8" standalone="no"?>
<svg width="81px" height="59px" viewBox="0 0 81 59" version="1.1" xmlns="http://www.w3.org/2000/svg" xmlns:xlink="http://www.w3.org/1999/xlink" xmlns:sketch="http://www.bohemiancoding.com/sketch/ns">
    <!-- Generator: Sketch 3.5.1 (25234) - http://www.bohemiancoding.com/sketch -->
    <title>FAQ Icon</title>
    <desc>Created with Sketch.</desc>
    <defs></defs>
    <g id="Help-Center" stroke="none" stroke-width="1" fill="none" fill-rule="evenodd" sketch:type="MSPage">
        <g id="Help-Center-Landing" sketch:type="MSArtboardGroup" transform="translate(-260.000000, -828.000000)" fill="#417505">
            <g id="Group-9" sketch:type="MSLayerGroup" transform="translate(235.000000, 828.000000)">
                <g id="FAQ-Icon" transform="translate(25.000000, 0.000000)" sketch:type="MSShapeGroup">
                    <path d="M26.5877783,12.5362884 C21.1269888,12.5362884 16.3823685,16.5591272 16.3823685,21.049738 C16.3823685,23.0143802 17.7251855,24.3241417 19.6946506,24.3241417 C21.9326791,24.3241417 22.6488482,22.733717 23.2754962,21.4239556 C23.9021441,19.9270853 24.5287921,18.7108782 26.8563417,18.7108782 C29.0048491,18.7108782 30.1686239,19.7399765 30.1686239,21.7046187 C30.1686239,23.3885978 28.7362857,24.5112505 27.1249051,25.8210119 C25.2449612,27.3178822 23.0069328,29.0954156 23.0069328,32.0891562 C23.0069328,33.7731352 24.1707076,35.644223 26.2296938,35.644223 C28.5572434,35.644223 29.0943702,34.1473528 29.5419759,33.0247001 C29.7210182,32.5569281 29.9000605,32.1827105 30.0791027,31.808493 C30.4371873,31.340721 31.2428775,30.6858403 32.1380889,30.0309595 C34.4656386,28.3469805 37.5988784,25.9145663 37.5988784,21.7046187 C37.5988784,14.9687026 31.6904832,12.5362884 26.5877783,12.5362884 L26.5877783,12.5362884 Z" id="Shape"></path>
                    <path d="M26.408736,37.0475389 C24.1707076,37.0475389 22.3802848,38.9186267 22.3802848,41.2574865 C22.3802848,43.5963463 24.1707076,45.4674341 26.408736,45.4674341 C28.6467645,45.4674341 30.4371873,43.5963463 30.4371873,41.2574865 C30.4371873,38.9186267 28.6467645,37.0475389 26.408736,37.0475389 L26.408736,37.0475389 Z" id="Shape"></path>
                    <path d="M52.3698664,33.0247001 C51.0270493,33.0247001 49.9527956,34.1473528 49.9527956,35.5506686 C49.9527956,36.9539845 51.0270493,38.0766372 52.3698664,38.0766372 C53.7126835,38.0766372 54.7869371,36.9539845 54.7869371,35.5506686 C54.7869371,34.1473528 53.7126835,33.0247001 52.3698664,33.0247001 L52.3698664,33.0247001 Z" id="Shape"></path>
                    <ellipse id="Oval" cx="59.0839518" cy="35.5506686" rx="2.41707076" ry="2.52596856"></ellipse>
                    <path d="M65.7980372,33.0247001 C64.4552202,33.0247001 63.3809665,34.1473528 63.3809665,35.5506686 C63.3809665,36.9539845 64.4552202,38.0766372 65.7980372,38.0766372 C67.1408543,38.0766372 68.215108,36.9539845 68.215108,35.5506686 C68.3046291,34.1473528 67.2303755,33.0247001 65.7980372,33.0247001 L65.7980372,33.0247001 Z" id="Shape"></path>
                    <path d="M78.0624333,45.6545429 C82.6280114,36.5797669 80.9271098,25.5403488 73.6758975,18.7108782 C69.8264885,15.062257 64.8133047,13.0040604 59.5315575,13.0040604 C56.8459233,13.0040604 54.2498103,13.5653867 51.7432184,14.5009306 L51.6536973,14.5009306 C50.6689647,12.8169516 49.5947111,11.3200813 48.3414151,9.82321107 C42.9701468,3.64862125 35.3608499,0.0935543911 27.3934686,0.0935543911 C20.589862,0.0935543911 14.14434,2.71307734 9.13115619,7.3907969 C-0.179042278,16.1849097 -2.41707076,30.9665035 3.6703667,42.6608023 L1.16377481,51.2678063 C0.895211391,52.2033502 1.16377481,53.1388941 1.70090164,53.8873293 C2.32754962,54.54221 3.22276101,54.9164276 4.1179724,54.7293188 L12.5329595,53.0453398 C17.1880587,56.4132978 22.8278905,58.2843857 28.4677222,58.2843857 C34.2865963,58.2843857 39.8369069,56.4132978 44.4920061,52.858231 L44.8500907,52.5775678 C48.6994997,56.0390803 53.5336412,57.9101681 58.6363461,57.9101681 C62.8438397,57.9101681 67.1408543,56.5068522 70.7216999,54.0744381 L76.8091374,55.2906451 C76.9881796,55.2906451 77.1672219,55.3841995 77.2567431,55.3841995 C77.9729122,55.3841995 78.6890813,55.1035364 79.136687,54.54221 C79.7633349,53.8873293 79.9423772,52.858231 79.6738138,51.9226871 L78.0624333,45.6545429 L78.0624333,45.6545429 Z M28.5572434,52.9517854 C23.6335807,52.9517854 18.7099181,51.2678063 14.770988,48.086957 C14.2338611,47.6191851 13.4281709,47.4320763 12.7120018,47.6191851 L7.34073341,48.7418378 L8.86259277,43.2221287 C9.04163505,42.4736936 8.95211391,41.7252584 8.59402935,41.0703777 C3.04371873,31.340721 4.74462037,18.9915414 12.5329595,11.5071901 C16.5614107,7.67146007 21.8431579,5.61326347 27.3039474,5.61326347 C33.7494694,5.61326347 40.0159492,8.51344959 44.402485,13.5653867 C45.3872175,14.6880394 46.1929078,15.9042465 46.998598,17.1204536 C45.6557809,18.1495519 44.402485,19.2722046 43.2387102,20.4884117 C36.5246248,28.2534261 35.6294134,39.5735074 41.0902029,48.086957 C41.179724,48.1805114 41.2692451,48.3676202 41.3587663,48.4611746 L41.2692451,48.554729 C37.5988784,51.4549151 33.2123426,52.9517854 28.5572434,52.9517854 L28.5572434,52.9517854 Z M72.7806861,46.1223148 L73.6758975,49.1160553 L70.7216999,48.554729 C70.0055308,48.3676202 69.2893617,48.554729 68.6627137,49.0225009 C65.7980372,51.2678063 62.3067128,52.4840134 58.7258673,52.4840134 C54.7869371,52.4840134 50.9375282,50.9871432 48.0728517,48.1805114 C47.9833306,48.086957 47.8042883,47.8998482 47.625246,47.8062939 C46.7300346,46.8707499 45.9243444,45.8416516 45.2976964,44.8125533 C41.4482874,38.4508547 42.2539777,29.9374052 47.1776403,24.2305873 C48.0728517,23.1079346 49.1471054,22.1723907 50.4004013,21.3304012 C51.474655,20.581966 52.5489087,20.0206397 53.7126835,19.5528677 C55.5926274,18.8044326 57.5620924,18.430215 59.5315575,18.430215 C63.4704876,18.430215 67.3198966,19.9270853 70.1845731,22.733717 C75.8244048,28.0663173 76.9881796,37.0475389 73.0492495,43.9705638 C72.691165,44.6254446 72.6016438,45.3738797 72.7806861,46.1223148 L72.7806861,46.1223148 Z" id="Shape"></path>
                </g>
            </g>
        </g>
    </g>
</svg>