<?xml version="1.0" encoding="UTF-8" standalone="no"?>
<svg width="54px" height="59px" viewBox="0 0 54 59" version="1.1" xmlns="http://www.w3.org/2000/svg" xmlns:xlink="http://www.w3.org/1999/xlink" xmlns:sketch="http://www.bohemiancoding.com/sketch/ns">
    <!-- Generator: Sketch 3.5.1 (25234) - http://www.bohemiancoding.com/sketch -->
    <title>Group 2</title>
    <desc>Created with Sketch.</desc>
    <defs></defs>
    <g id="Help-Center" stroke="none" stroke-width="1" fill="none" fill-rule="evenodd" sketch:type="MSPage">
        <g id="Help-Center-Landing" sketch:type="MSArtboardGroup" transform="translate(-1112.000000, -823.000000)" fill="#417505">
            <g id="Group-6" sketch:type="MSLayerGroup" transform="translate(1039.000000, 823.000000)">
                <g id="Group-2" transform="translate(73.000000, 0.000000)" sketch:type="MSShapeGroup">
                    <path d="M9.35749816,43.0710024 C9.91522984,43.3300761 10.5349317,43.5891498 11.0926634,43.8482235 C11.6503951,44.1072972 12.2700969,44.3663709 12.8897988,44.6254446 C18.0952945,46.5037289 23.1768497,49.0296974 28.6921963,49.8069185 C29.6217491,49.9364554 30.4893318,50.0012238 31.4188846,50.0012238 C32.3484374,50.0012238 33.2779901,50.0012238 34.2075429,49.871687 C35.0751256,49.8069185 35.9427082,49.6773817 36.872261,49.4830764 C40.4045616,48.7706237 43.7509517,47.6047921 47.0973417,46.2446552 C46.5396101,48.6410869 46.3536995,51.2318239 45.3002063,53.4339503 C44.9283852,54.146403 44.4945939,54.8588556 43.9368622,55.5065399 C43.2551902,56.2189926 42.4495777,56.8019084 41.6439653,57.2552874 C41.210174,57.5143611 40.8383529,57.7086663 40.4045616,57.8382032 C39.9707703,58.0325085 39.536979,58.1620453 39.1031877,58.2915822 C37.4299926,58.6154243 35.6948274,58.7449611 34.0216324,58.6801927 C33.1540498,58.6801927 32.3484374,58.6154243 31.4808547,58.4858874 C22.5571479,57.3848242 14.0052621,53.9520977 6.32095902,49.1592343 L6.32095902,41.1279496 L9.35749816,43.0710024 L9.35749816,43.0710024 Z" id="Shape"></path>
                    <path d="M0.0619701865,3.62703178 L16.3601292,23.7052434 C16.6699802,22.2803381 16.9798311,20.9202012 17.4136224,19.5600642 C18.8389367,20.2725169 20.264251,20.9849696 21.6895653,21.7621907 C23.1148796,22.5394118 24.4782237,23.3814013 25.903538,24.2233908 C29.7456895,26.7493594 33.5258709,29.2753279 37.1821119,32.1251386 C37.9257541,32.7080544 38.6074262,33.2909703 39.3510684,33.8738861 C44.184743,37.6304547 49.3282684,43.1357708 48.2128051,50.0012238 C50.6296424,44.7549814 52.8605691,39.2496653 53.2323902,33.4205071 C53.2943604,32.643286 53.2943604,31.8660649 53.2323902,31.0240754 C53.17042,30.3763911 53.0464796,29.6639385 52.9225393,29.0162542 C52.7366287,28.2390331 52.5507181,27.5265805 52.2408672,26.8141278 C52.0549567,26.2959804 51.8070759,25.8426014 51.5591952,25.324454 C51.3113144,24.8710751 51.0634337,24.4176961 50.7535827,23.9643171 C46.9114312,18.005622 41.0862336,13.8604429 35.4469467,9.90956897 C33.9596622,8.9380426 32.4104075,7.96651623 30.8611529,7.12452671 C29.6217491,6.41207404 28.3203752,5.76438979 27.0809715,5.11670554 C26.1514187,4.59855815 25.2218659,4.14517918 24.2303429,3.6918002 C24.8500448,2.59073698 25.5317168,1.55444219 26.2133889,0.453378972 L0.0619701865,3.62703178 L0.0619701865,3.62703178 Z" id="Shape"></path>
                </g>
            </g>
        </g>
    </g>
</svg>