<?xml version="1.0" encoding="UTF-8" standalone="no"?>
<svg width="67px" height="67px" viewBox="0 0 67 67" version="1.1" xmlns="http://www.w3.org/2000/svg" xmlns:xlink="http://www.w3.org/1999/xlink" xmlns:sketch="http://www.bohemiancoding.com/sketch/ns">
    <!-- Generator: Sketch 3.5.1 (25234) - http://www.bohemiancoding.com/sketch -->
    <title>Group 3</title>
    <desc>Created with Sketch.</desc>
    <defs></defs>
    <g id="Help-Center" stroke="none" stroke-width="1" fill="none" fill-rule="evenodd" sketch:type="MSPage">
        <g id="Help-Center-Landing" sketch:type="MSArtboardGroup" transform="translate(-832.000000, -817.000000)">
            <g id="Group-3" sketch:type="MSLayerGroup" transform="translate(829.000000, 814.000000)">
                <path d="M0,0 L73,0 L73,73 L0,73 L0,0 Z" id="Shape" sketch:type="MSShapeGroup"></path>
                <path d="M36.5,24.3333333 C29.7779167,24.3333333 24.3333333,29.7779167 24.3333333,36.5 C24.3333333,43.2220833 29.7779167,48.6666667 36.5,48.6666667 C43.2220833,48.6666667 48.6666667,43.2220833 48.6666667,36.5 C48.6666667,29.7779167 43.2220833,24.3333333 36.5,24.3333333 L36.5,24.3333333 Z M63.6925,33.4583333 C62.2933333,20.7745833 52.2254167,10.7066667 39.5416667,9.3075 L39.5416667,3.04166667 L33.4583333,3.04166667 L33.4583333,9.3075 C20.7745833,10.7066667 10.7066667,20.7745833 9.3075,33.4583333 L3.04166667,33.4583333 L3.04166667,39.5416667 L9.3075,39.5416667 C10.7066667,52.2254167 20.7745833,62.2933333 33.4583333,63.6925 L33.4583333,69.9583333 L39.5416667,69.9583333 L39.5416667,63.6925 C52.2254167,62.2933333 62.2933333,52.2254167 63.6925,39.5416667 L69.9583333,39.5416667 L69.9583333,33.4583333 L63.6925,33.4583333 L63.6925,33.4583333 Z M36.5,57.7916667 C24.72875,57.7916667 15.2083333,48.27125 15.2083333,36.5 C15.2083333,24.72875 24.72875,15.2083333 36.5,15.2083333 C48.27125,15.2083333 57.7916667,24.72875 57.7916667,36.5 C57.7916667,48.27125 48.27125,57.7916667 36.5,57.7916667 L36.5,57.7916667 Z" id="Shape" fill="#417505" sketch:type="MSShapeGroup"></path>
            </g>
        </g>
    </g>
</svg>